<svg xmlns="http://www.w3.org/2000/svg" xmlns:xlink="http://www.w3.org/1999/xlink" contentStyleType="text/css" height="882px" preserveAspectRatio="none" style="width:1191px;height:882px;background:#FFFFFF;" version="1.1" viewBox="0 0 1191 882" width="1191px" zoomAndPan="magnify"><defs/><g><text fill="#000000" font-family="sans-serif" font-size="14" font-weight="bold" lengthAdjust="spacing" textLength="398.877" x="394.6914" y="33.5352">Modelling Cross-Lingual links in your Lexical Resource</text><text fill="#000000" font-family="sans-serif" font-size="14" font-weight="bold" lengthAdjust="spacing" textLength="4.6143" x="591.8228" y="50.0234">&#160;</text><ellipse cx="449.2725" cy="73.9766" fill="#32CD32" rx="10" ry="10" style="stroke:#222222;stroke-width:1.0;"/><rect fill="none" height="136.7539" style="stroke:#000000;stroke-width:1.5;" width="425.8574" x="236.3438" y="93.9766"/><path d="M298.7207,93.9766 L298.7207,103.4648 L288.7207,113.4648 L236.3438,113.4648 " fill="none" style="stroke:#000000;stroke-width:1.5;"/><text fill="#000000" font-family="sans-serif" font-size="14" lengthAdjust="spacing" textLength="52.377" x="239.3438" y="108.5117">Analyse</text><rect fill="#D4DE5E" height="34.1328" rx="12.5" ry="12.5" style="stroke:#5E94DE;stroke-width:0.5;" width="405.8574" x="246.3438" y="130.4648"/><text fill="#000000" font-family="sans-serif" font-size="12" lengthAdjust="spacing" textLength="385.8574" x="256.3438" y="152.0664">What are the lexico-semantic representation levels in my resource</text><rect fill="#D4DE5E" height="34.1328" rx="12.5" ry="12.5" style="stroke:#5E94DE;stroke-width:0.5;" width="297.2363" x="300.6543" y="184.5977"/><text fill="#000000" font-family="sans-serif" font-size="12" lengthAdjust="spacing" textLength="277.2363" x="310.6543" y="206.1992">Draw the Vauquois Triangle with my own edges</text><rect fill="none" height="310.1621" style="stroke:#000000;stroke-width:1.5;" width="921.6768" x="258.583" y="240.7305"/><path d="M314.6982,240.7305 L314.6982,250.2188 L304.6982,260.2188 L258.583,260.2188 " fill="none" style="stroke:#000000;stroke-width:1.5;"/><text fill="#000000" font-family="sans-serif" font-size="14" lengthAdjust="spacing" textLength="46.1152" x="261.583" y="255.2656">Decide</text><rect fill="#D4DE5E" height="34.1328" rx="12.5" ry="12.5" style="stroke:#5E94DE;stroke-width:0.5;" width="361.3789" x="268.583" y="277.2188"/><text fill="#000000" font-family="sans-serif" font-size="12" lengthAdjust="spacing" textLength="341.3789" x="278.583" y="298.8203">What is the highest level I can reach for cross-lingual links</text><rect fill="#D4DE5E" height="34.1328" rx="12.5" ry="12.5" style="stroke:#5E94DE;stroke-width:0.5;" width="298.8242" x="299.8604" y="375.3516"/><text fill="#000000" font-family="sans-serif" font-size="12" lengthAdjust="spacing" textLength="278.8242" x="309.8604" y="396.9531">evaluate the effort to maintain links at this level</text><polygon fill="#5EDE68" points="449.2725,331.3516,461.2725,343.3516,449.2725,355.3516,437.2725,343.3516,449.2725,331.3516" style="stroke:#5E94DE;stroke-width:0.5;"/><polygon fill="#5EDE68" points="289.5654,439.4844,608.9795,439.4844,620.9795,451.4844,608.9795,463.4844,289.5654,463.4844,277.5654,451.4844,289.5654,439.4844" style="stroke:#5E94DE;stroke-width:0.5;"/><text fill="#000000" font-family="sans-serif" font-size="16" lengthAdjust="spacing" textLength="319.4141" x="289.5654" y="457.5313">cross-lingual links may be implemented?</text><text fill="#000000" font-family="sans-serif" font-size="11" lengthAdjust="spacing" textLength="13.5835" x="620.9795" y="449.1641">no</text><path d="M779.9658,367.1074 L779.9658,388.418 L759.9658,392.418 L779.9658,396.418 L779.9658,417.7285 A0,0 0 0 0 779.9658,417.7285 L1170.2598,417.7285 A0,0 0 0 0 1170.2598,417.7285 L1170.2598,377.1074 L1160.2598,367.1074 L779.9658,367.1074 A0,0 0 0 0 779.9658,367.1074 " fill="#FEFFDD" style="stroke:#181818;stroke-width:0.5;"/><path d="M1160.2598,367.1074 L1160.2598,377.1074 L1170.2598,377.1074 L1160.2598,367.1074 " fill="#FEFFDD" style="stroke:#181818;stroke-width:0.5;"/><text fill="#000000" font-family="sans-serif" font-size="13" lengthAdjust="spacing" textLength="254.0522" x="785.9658" y="384.6758">If possible try to keep the same level for</text><text fill="#000000" font-family="sans-serif" font-size="13" font-style="italic" lengthAdjust="spacing" textLength="41.9009" x="1044.1313" y="384.6758">source</text><text fill="#000000" font-family="sans-serif" font-size="13" lengthAdjust="spacing" textLength="23.4292" x="1090.1455" y="384.6758">and</text><text fill="#000000" font-family="sans-serif" font-size="13" font-style="italic" lengthAdjust="spacing" textLength="37.5718" x="1117.688" y="384.6758">target</text><line style="stroke:#181818;stroke-width:1.0;" x1="779.9658" x2="1170.2598" y1="392.418" y2="392.418"/><line style="stroke:#181818;stroke-width:1.0;" x1="779.9658" x2="1170.2598" y1="394.418" y2="394.418"/><ellipse cx="791.4658" cy="405.2285" fill="#000000" rx="2.5" ry="2.5" style="stroke:#000000;stroke-width:0.0;"/><text fill="#000000" font-family="sans-serif" font-size="13" lengthAdjust="spacing" textLength="221.7744" x="797.9658" y="409.9863">this is not an absolute requirement</text><rect fill="#D4DE5E" height="34.1328" rx="12.5" ry="12.5" style="stroke:#5E94DE;stroke-width:0.5;" width="114.9863" x="644.9795" y="375.3516"/><text fill="#000000" font-family="sans-serif" font-size="12" lengthAdjust="spacing" textLength="94.9863" x="654.9795" y="396.9531">Try a lower level</text><rect fill="#D4DE5E" height="34.1328" rx="12.5" ry="12.5" style="stroke:#5E94DE;stroke-width:0.5;" width="358.3027" x="270.1211" y="504.7598"/><text fill="#000000" font-family="sans-serif" font-size="12" lengthAdjust="spacing" textLength="338.3027" x="280.1211" y="526.3613">Document my cross-lingual links in my Vauquois Triangle</text><rect fill="none" height="269.0195" style="stroke:#000000;stroke-width:1.5;" width="954.0254" x="11" y="560.8926"/><path d="M93.5566,560.8926 L93.5566,570.3809 L83.5566,580.3809 L11,580.3809 " fill="none" style="stroke:#000000;stroke-width:1.5;"/><text fill="#000000" font-family="sans-serif" font-size="14" lengthAdjust="spacing" textLength="72.5566" x="14" y="575.4277">Implement</text><polygon fill="#5EDE68" points="153.6279,597.3809,744.917,597.3809,756.917,609.3809,744.917,621.3809,153.6279,621.3809,141.6279,609.3809,153.6279,597.3809" style="stroke:#5E94DE;stroke-width:0.5;"/><text fill="#000000" font-family="sans-serif" font-size="16" lengthAdjust="spacing" textLength="591.2891" x="153.6279" y="615.4277">an existing or standard vocabulary exists to link from/to the chosen levels ?</text><text fill="#000000" font-family="sans-serif" font-size="11" lengthAdjust="spacing" textLength="17.4829" x="124.145" y="607.0605">yes</text><text fill="#000000" font-family="sans-serif" font-size="11" lengthAdjust="spacing" textLength="13.5835" x="756.917" y="607.0605">no</text><rect fill="#D4DE5E" height="48.2656" rx="12.5" ry="12.5" style="stroke:#5E94DE;stroke-width:0.5;" width="217.2559" x="23" y="631.3809"/><text fill="#000000" font-family="sans-serif" font-size="12" lengthAdjust="spacing" textLength="197.2559" x="33" y="652.9824">Model my cross-lingual links with</text><text fill="#000000" font-family="sans-serif" font-size="12" lengthAdjust="spacing" textLength="18.6211" x="33" y="667.1152">the</text><text fill="#000000" font-family="sans-serif" font-size="12" font-weight="bold" lengthAdjust="spacing" textLength="168.9316" x="55.418" y="667.1152">existing classes/properties</text><rect fill="#D4DE5E" height="34.1328" rx="12.5" ry="12.5" style="stroke:#5E94DE;stroke-width:0.5;" width="217.9414" x="657.9463" y="631.3809"/><text fill="#000000" font-family="sans-serif" font-size="12" lengthAdjust="spacing" textLength="197.9414" x="667.9463" y="652.9824">Create my own classes/properties</text><rect fill="#D4DE5E" height="34.1328" rx="12.5" ry="12.5" style="stroke:#5E94DE;stroke-width:0.5;" width="356.2168" x="588.8086" y="699.6465"/><text fill="#000000" font-family="sans-serif" font-size="12" lengthAdjust="spacing" textLength="336.2168" x="598.8086" y="721.248">Link my classes/properties to existing standards (in OWL)</text><polygon fill="#5EDE68" points="449.2725,739.7793,461.2725,751.7793,449.2725,763.7793,437.2725,751.7793,449.2725,739.7793" style="stroke:#5E94DE;stroke-width:0.5;"/><rect fill="#D4DE5E" height="34.1328" rx="12.5" ry="12.5" style="stroke:#5E94DE;stroke-width:0.5;" width="329.1699" x="284.6875" y="783.7793"/><text fill="#000000" font-family="sans-serif" font-size="12" lengthAdjust="spacing" textLength="309.1699" x="294.6875" y="805.3809">Document my modelling using my Vauquois Triangle</text><ellipse cx="449.2725" cy="860.9121" fill="none" rx="11" ry="11" style="stroke:#222222;stroke-width:1.0;"/><ellipse cx="449.2725" cy="860.9121" fill="#222222" rx="6" ry="6" style="stroke:#222222;stroke-width:1.0;"/><line style="stroke:#000000;stroke-width:1.0;" x1="449.2725" x2="449.2725" y1="164.5977" y2="184.5977"/><polygon fill="#000000" points="445.2725,174.5977,449.2725,184.5977,453.2725,174.5977,449.2725,178.5977" style="stroke:#000000;stroke-width:1.0;"/><line style="stroke:#000000;stroke-width:1.0;" x1="449.2725" x2="449.2725" y1="83.9766" y2="130.4648"/><polygon fill="#000000" points="445.2725,120.4648,449.2725,130.4648,453.2725,120.4648,449.2725,124.4648" style="stroke:#000000;stroke-width:1.0;"/><line style="stroke:#000000;stroke-width:1.0;" x1="449.2725" x2="449.2725" y1="355.3516" y2="375.3516"/><polygon fill="#000000" points="445.2725,365.3516,449.2725,375.3516,453.2725,365.3516,449.2725,369.3516" style="stroke:#000000;stroke-width:1.0;"/><line style="stroke:#000000;stroke-width:1.0;" x1="620.9795" x2="702.4727" y1="451.4844" y2="451.4844"/><line style="stroke:#000000;stroke-width:1.0;" x1="702.4727" x2="702.4727" y1="409.4844" y2="451.4844"/><polygon fill="#000000" points="698.4727,419.4844,702.4727,409.4844,706.4727,419.4844,702.4727,415.4844" style="stroke:#000000;stroke-width:1.0;"/><line style="stroke:#000000;stroke-width:1.0;" x1="702.4727" x2="702.4727" y1="343.3516" y2="375.3516"/><line style="stroke:#000000;stroke-width:1.0;" x1="702.4727" x2="461.2725" y1="343.3516" y2="343.3516"/><polygon fill="#000000" points="471.2725,339.3516,461.2725,343.3516,471.2725,347.3516,467.2725,343.3516" style="stroke:#000000;stroke-width:1.0;"/><line style="stroke:#000000;stroke-width:1.0;" x1="449.2725" x2="449.2725" y1="409.4844" y2="439.4844"/><polygon fill="#000000" points="445.2725,429.4844,449.2725,439.4844,453.2725,429.4844,449.2725,433.4844" style="stroke:#000000;stroke-width:1.0;"/><line style="stroke:#000000;stroke-width:1.0;" x1="449.2725" x2="449.2725" y1="311.3516" y2="331.3516"/><polygon fill="#000000" points="445.2725,321.3516,449.2725,331.3516,453.2725,321.3516,449.2725,325.3516" style="stroke:#000000;stroke-width:1.0;"/><line style="stroke:#000000;stroke-width:1.0;" x1="449.2725" x2="449.2725" y1="463.4844" y2="504.7598"/><polygon fill="#000000" points="445.2725,494.7598,449.2725,504.7598,453.2725,494.7598,449.2725,498.7598" style="stroke:#000000;stroke-width:1.0;"/><text fill="#000000" font-family="sans-serif" font-size="11" lengthAdjust="spacing" textLength="17.4829" x="453.2725" y="484.9395">yes</text><line style="stroke:#000000;stroke-width:1.0;" x1="449.2725" x2="449.2725" y1="218.7305" y2="277.2188"/><polygon fill="#000000" points="445.2725,267.2188,449.2725,277.2188,453.2725,267.2188,449.2725,271.2188" style="stroke:#000000;stroke-width:1.0;"/><line style="stroke:#000000;stroke-width:1.0;" x1="766.917" x2="766.917" y1="665.5137" y2="699.6465"/><polygon fill="#000000" points="762.917,689.6465,766.917,699.6465,770.917,689.6465,766.917,693.6465" style="stroke:#000000;stroke-width:1.0;"/><line style="stroke:#000000;stroke-width:1.0;" x1="141.6279" x2="131.6279" y1="609.3809" y2="609.3809"/><line style="stroke:#000000;stroke-width:1.0;" x1="131.6279" x2="131.6279" y1="609.3809" y2="631.3809"/><polygon fill="#000000" points="127.6279,621.3809,131.6279,631.3809,135.6279,621.3809,131.6279,625.3809" style="stroke:#000000;stroke-width:1.0;"/><line style="stroke:#000000;stroke-width:1.0;" x1="756.917" x2="766.917" y1="609.3809" y2="609.3809"/><line style="stroke:#000000;stroke-width:1.0;" x1="766.917" x2="766.917" y1="609.3809" y2="631.3809"/><polygon fill="#000000" points="762.917,621.3809,766.917,631.3809,770.917,621.3809,766.917,625.3809" style="stroke:#000000;stroke-width:1.0;"/><line style="stroke:#000000;stroke-width:1.0;" x1="131.6279" x2="131.6279" y1="679.6465" y2="751.7793"/><line style="stroke:#000000;stroke-width:1.0;" x1="131.6279" x2="437.2725" y1="751.7793" y2="751.7793"/><polygon fill="#000000" points="427.2725,747.7793,437.2725,751.7793,427.2725,755.7793,431.2725,751.7793" style="stroke:#000000;stroke-width:1.0;"/><line style="stroke:#000000;stroke-width:1.0;" x1="766.917" x2="766.917" y1="733.7793" y2="751.7793"/><line style="stroke:#000000;stroke-width:1.0;" x1="766.917" x2="461.2725" y1="751.7793" y2="751.7793"/><polygon fill="#000000" points="471.2725,747.7793,461.2725,751.7793,471.2725,755.7793,467.2725,751.7793" style="stroke:#000000;stroke-width:1.0;"/><line style="stroke:#000000;stroke-width:1.0;" x1="449.2725" x2="449.2725" y1="763.7793" y2="783.7793"/><polygon fill="#000000" points="445.2725,773.7793,449.2725,783.7793,453.2725,773.7793,449.2725,777.7793" style="stroke:#000000;stroke-width:1.0;"/><line style="stroke:#000000;stroke-width:1.0;" x1="449.2725" x2="449.2725" y1="538.8926" y2="597.3809"/><polygon fill="#000000" points="445.2725,587.3809,449.2725,597.3809,453.2725,587.3809,449.2725,591.3809" style="stroke:#000000;stroke-width:1.0;"/><line style="stroke:#000000;stroke-width:1.0;" x1="449.2725" x2="449.2725" y1="817.9121" y2="849.9121"/><polygon fill="#000000" points="445.2725,839.9121,449.2725,849.9121,453.2725,839.9121,449.2725,843.9121" style="stroke:#000000;stroke-width:1.0;"/><!--SRC=[VLJ1RjD04BtxAqRbaY1L5XAje2b5fULGAGY9LlJ2PMnFubNMk-xkEYOW_fstkqc8IC6AadXcTjwRzyRsAsLwTjoHRxcnep9BMh3sKXH11ItqoJQYTGpVEElzwHn_1zQ4qCgJChInWwEvV5Sreb_4uxQMRwOe_Burrq6jLTZGpu9mtGTsuSPgwz2bawKJCIdnqJGvtB1RLNgG5Ft0zMhfxB1BlcXUDtAspLdNYDl6p-GjCYb-xPmTSxZIE5_yUeREhUBEccRBwWZcJ1evV_DVc8KruLxz47fr3eJ2ny4AW40wPGsTN1lM6oydMuYBnvO3iHCAhP2EcjbJBnsRe6foqZlnOWAdmrhMefF2tGQvhEiizxbrFAOUNtbu6gpozE0KcoNy6bLeumax6f9cANuMcHrmkfLQDNzHGeFOhLNBLdp8q7H7DHiWSzrYK4TrybyV-Zyh2h0MTCZDPCrwu93damLE1GgMEbQO2fFafK5vQ06POF945SGVsJKN3sv3JDgEuWxpngAf0xs0sxi5zQ2YAemRK0-4bKYVG3rtikKVEPTbrgqiYU5qMSAXfOIoH9jtkF3pCfF11o2e8gwyrKF4awT1EUbWII4u7KdivXrR1VJ9CvfWsWrLGghhTJehpVjfR3ynTbeKfrUqYQPa7sqzn99es7Ejilb79iy8dXvOUhU3Ygwcpcf14uo23VCXFhkG0ijfy5mrjBOrLuDcA9VoFWeOyMZXR5VY9WfPjnQxkDj2J82WeGcuJnD2ufzU3lyYdpOnrSP-bzNLdasjsNlnPUziBvX2_6LPNMLDW2PPgZtA3NOGTcoN-lZmx4_fF8uH-HmLnI7t17PQm1H8_FbnFjs2cqOjZgtfzk_0mSVlPpt9Bm3R_mO0]--></g></svg>